<svg width="19" height="20" viewBox="0 0 19 20" fill="none" xmlns="http://www.w3.org/2000/svg">
<path d="M1 8.88265C1 5.16696 1 3.30863 2.06619 2.15481C3.13148 1 4.84722 1 8.27778 1H10.0972C13.5278 1 15.2435 1 16.3088 2.15481C17.375 3.30863 17.375 5.16696 17.375 8.88265V10.8533C17.375 14.569 17.375 16.4273 16.3088 17.5811C15.2435 18.736 13.5278 18.736 10.0972 18.736H8.27778C4.84722 18.736 3.13148 18.736 2.06619 17.5811C1 16.4273 1 14.569 1 10.8533V8.88265Z" stroke="#F7F7F7" stroke-width="2"/>
<path d="M9.18717 12.8241C10.6945 12.8241 11.9163 11.5007 11.9163 9.8681C11.9163 8.23555 10.6945 6.91211 9.18717 6.91211C7.6799 6.91211 6.45801 8.23555 6.45801 9.8681C6.45801 11.5007 7.6799 12.8241 9.18717 12.8241Z" stroke="#F7F7F7" stroke-width="2"/>
</svg>
