<svg width="329" height="124" viewBox="0 0 329 124" fill="none" xmlns="http://www.w3.org/2000/svg">
<path d="M19.4545 0.181885V70.0001H0.5V0.181885H19.4545ZM88.8466 0.181885V70.0001H73.0284L47.8011 33.3183H47.392V70.0001H28.4375V0.181885H44.5284L69.3466 36.7274H69.892V0.181885H88.8466ZM116.767 0.181885V70.0001H97.8125V0.181885H116.767ZM122.886 0.181885H144.023L157.659 28.5456H158.205L171.841 0.181885H192.977L167.341 48.0456V70.0001H148.523V48.0456L122.886 0.181885ZM210.168 70.0001H189.713L212.759 0.181885H238.668L261.713 70.0001H241.259L225.986 19.4092H225.44L210.168 70.0001ZM217.413 46L232.353 40.5L234.631 48.0456L214.5 55.6496L217.413 46ZM328.847 0.181885V70.0001H313.028L287.801 33.3183H287.392V70.0001H268.438V0.181885H284.528L309.347 36.7274H309.892V0.181885H328.847Z" fill="url(#paint0_linear_811_9)"/>
<path d="M109.136 96.5909C109.076 95.8329 108.792 95.2429 108.284 94.8179C107.784 94.3939 107.023 94.1819 106 94.1819C105.349 94.1819 104.814 94.2609 104.398 94.4209C103.989 94.5719 103.686 94.7799 103.489 95.0459C103.292 95.3109 103.189 95.6139 103.182 95.9549C103.167 96.2349 103.216 96.4889 103.33 96.7159C103.451 96.9359 103.64 97.1359 103.898 97.3179C104.155 97.4929 104.485 97.6519 104.886 97.7959C105.288 97.9389 105.765 98.0679 106.318 98.1819L108.227 98.5909C109.515 98.8639 110.618 99.2239 111.534 99.6709C112.451 100.118 113.201 100.644 113.784 101.25C114.368 101.849 114.796 102.523 115.068 103.273C115.349 104.023 115.493 104.841 115.5 105.727C115.493 107.258 115.11 108.553 114.352 109.614C113.595 110.674 112.511 111.481 111.102 112.034C109.701 112.587 108.015 112.864 106.046 112.864C104.023 112.864 102.258 112.564 100.75 111.966C99.25 111.368 98.0833 110.447 97.25 109.205C96.4242 107.955 96.0076 106.356 96 104.409H102C102.038 105.121 102.216 105.72 102.534 106.205C102.852 106.689 103.299 107.057 103.875 107.307C104.458 107.557 105.152 107.682 105.955 107.682C106.629 107.682 107.193 107.599 107.648 107.432C108.102 107.265 108.447 107.034 108.682 106.739C108.917 106.443 109.038 106.106 109.046 105.727C109.038 105.371 108.921 105.061 108.693 104.796C108.474 104.523 108.11 104.28 107.602 104.068C107.095 103.849 106.409 103.644 105.546 103.455L103.227 102.955C101.167 102.508 99.5417 101.761 98.3523 100.716C97.1704 99.6629 96.5833 98.2269 96.5909 96.4089C96.5833 94.9319 96.9773 93.6399 97.7727 92.5339C98.5757 91.4209 99.6856 90.5529 101.102 89.9319C102.527 89.3106 104.159 89 106 89C107.879 89 109.504 89.3144 110.875 89.9429C112.246 90.5719 113.303 91.4579 114.046 92.6019C114.796 93.7389 115.174 95.0679 115.182 96.5909H109.136ZM117.267 94.4089V89.3182H137.494V94.4089H130.494V112.591H124.267V94.4089H117.267ZM153.645 89.3182H159.963V104.227C159.963 106 159.539 107.534 158.69 108.83C157.85 110.118 156.675 111.114 155.168 111.818C153.66 112.515 151.91 112.864 149.918 112.864C147.91 112.864 146.153 112.515 144.645 111.818C143.137 111.114 141.963 110.118 141.122 108.83C140.289 107.534 139.872 106 139.872 104.227V89.3182H146.19V103.682C146.19 104.402 146.35 105.046 146.668 105.614C146.986 106.174 147.425 106.614 147.986 106.932C148.554 107.25 149.198 107.409 149.918 107.409C150.645 107.409 151.289 107.25 151.85 106.932C152.41 106.614 152.85 106.174 153.168 105.614C153.486 105.046 153.645 104.402 153.645 103.682V89.3182ZM171.921 112.591H162.966V89.3182H171.83C174.224 89.3182 176.292 89.7839 178.034 90.7159C179.784 91.6399 181.133 92.9739 182.08 94.7159C183.034 96.4509 183.511 98.5299 183.511 100.955C183.511 103.379 183.038 105.462 182.091 107.205C181.144 108.939 179.803 110.273 178.068 111.205C176.333 112.129 174.284 112.591 171.921 112.591ZM169.284 107.227H171.693C172.845 107.227 173.826 107.042 174.636 106.671C175.455 106.299 176.076 105.659 176.5 104.75C176.932 103.841 177.148 102.576 177.148 100.955C177.148 99.3329 176.928 98.0679 176.489 97.1589C176.057 96.2499 175.421 95.6099 174.58 95.2389C173.746 94.8679 172.724 94.6819 171.511 94.6819H169.284V107.227ZM192.753 89.3182V112.591H186.435V89.3182H192.753ZM233.761 96.5909C233.701 95.8329 233.417 95.2429 232.909 94.8179C232.409 94.3939 231.648 94.1819 230.625 94.1819C229.974 94.1819 229.439 94.2609 229.023 94.4209C228.614 94.5719 228.311 94.7799 228.114 95.0459C227.917 95.3109 227.814 95.6139 227.807 95.9549C227.792 96.2349 227.841 96.4889 227.955 96.7159C228.076 96.9359 228.265 97.1359 228.523 97.3179C228.78 97.4929 229.11 97.6519 229.511 97.7959C229.913 97.9389 230.39 98.0679 230.943 98.1819L232.852 98.5909C234.14 98.8639 235.243 99.2239 236.159 99.6709C237.076 100.118 237.826 100.644 238.409 101.25C238.993 101.849 239.421 102.523 239.693 103.273C239.974 104.023 240.118 104.841 240.125 105.727C240.118 107.258 239.735 108.553 238.977 109.614C238.22 110.674 237.136 111.481 235.727 112.034C234.326 112.587 232.64 112.864 230.671 112.864C228.648 112.864 226.883 112.564 225.375 111.966C223.875 111.368 222.708 110.447 221.875 109.205C221.049 107.955 220.633 106.356 220.625 104.409H226.625C226.663 105.121 226.841 105.72 227.159 106.205C227.477 106.689 227.924 107.057 228.5 107.307C229.083 107.557 229.777 107.682 230.58 107.682C231.254 107.682 231.818 107.599 232.273 107.432C232.727 107.265 233.072 107.034 233.307 106.739C233.542 106.443 233.663 106.106 233.671 105.727C233.663 105.371 233.546 105.061 233.318 104.796C233.099 104.523 232.735 104.28 232.227 104.068C231.72 103.849 231.034 103.644 230.171 103.455L227.852 102.955C225.792 102.508 224.167 101.761 222.977 100.716C221.796 99.6629 221.208 98.2269 221.216 96.4089C221.208 94.9319 221.602 93.6399 222.398 92.5339C223.201 91.4209 224.311 90.5529 225.727 89.9319C227.152 89.3106 228.784 89 230.625 89C232.504 89 234.129 89.3144 235.5 89.9429C236.871 90.5719 237.928 91.4579 238.671 92.6019C239.421 93.7389 239.799 95.0679 239.807 96.5909H233.761Z" fill="black"/>
<path d="M205.907 96.9107L210.216 89.4493C212.016 89.9133 213.644 90.8227 215.099 92.1773C216.554 93.532 217.612 95.1098 218.272 96.9107H205.907ZM202.851 100.013L198.564 92.4747C199.696 91.3653 200.983 90.5089 202.427 89.9053C203.87 89.3018 205.395 89 207 89C207.34 89 207.729 89.0209 208.167 89.0627C208.604 89.1044 208.936 89.1476 209.161 89.192L202.851 100.013ZM195.384 103.973C195.251 103.406 195.153 102.884 195.092 102.405C195.031 101.927 195 101.459 195 101C195 99.5929 195.239 98.2409 195.716 96.944C196.192 95.6462 196.889 94.4284 197.805 93.2907L203.923 103.975L195.384 103.973ZM203.923 112.603C202.02 112.104 200.322 111.169 198.829 109.797C197.337 108.427 196.295 106.832 195.704 105.013H208.24L203.923 112.603ZM207 113C206.667 113 206.307 112.978 205.92 112.933C205.533 112.889 205.218 112.844 204.973 112.8L211.253 102.141L215.461 109.5C214.347 110.609 213.059 111.47 211.599 112.083C210.138 112.695 208.605 113.001 207 113ZM216.195 108.711L210.077 97.9733H218.619C218.734 98.4889 218.827 99.0036 218.896 99.5173C218.965 100.031 219 100.525 219 101C219 102.436 218.762 103.797 218.285 105.083C217.81 106.368 217.113 107.577 216.195 108.709" fill="black"/>
<defs>
<linearGradient id="paint0_linear_811_9" x1="181" y1="82.5" x2="183.5" y2="-81" gradientUnits="userSpaceOnUse">
<stop stop-color="#FF0000"/>
<stop offset="1" stop-color="#990000"/>
</linearGradient>
</defs>
</svg>
