<svg width="19" height="20" viewBox="0 0 19 20" fill="none" xmlns="http://www.w3.org/2000/svg">
<path fill-rule="evenodd" clip-rule="evenodd" d="M2.73293 10.2241C2.73306 8.74512 3.12634 7.29754 3.86557 6.0551C4.60481 4.81267 5.6586 3.82817 6.90051 3.21973C8.14241 2.61129 9.51965 2.40476 10.867 2.62492C12.2144 2.84509 13.4746 3.48259 14.4964 4.46093C15.5183 5.43927 16.2584 6.7169 16.628 8.14051C16.9975 9.56409 16.9807 11.0732 16.5797 12.4868C16.1787 13.9003 15.4105 15.1582 14.3672 16.1095C13.324 17.0609 12.05 17.6653 10.6982 17.8502V12.1456H12.4681C12.7029 12.1456 12.928 12.0444 13.094 11.8642C13.2599 11.684 13.3532 11.4397 13.3532 11.1849C13.3532 10.93 13.2599 10.6857 13.094 10.5055C12.928 10.3254 12.7029 10.2241 12.4681 10.2241H10.6982V8.30277C10.6982 8.04798 10.7913 7.80362 10.9574 7.62345C11.1233 7.44329 11.3484 7.34207 11.5831 7.34207H12.0257C12.2604 7.34207 12.4855 7.24086 12.6514 7.06069C12.8174 6.88052 12.9107 6.63617 12.9107 6.38137C12.9107 6.12658 12.8174 5.88222 12.6514 5.70206C12.4855 5.52189 12.2604 5.42068 12.0257 5.42068H11.5831C10.879 5.42068 10.2036 5.72433 9.70575 6.26482C9.20778 6.80532 8.92808 7.53839 8.92808 8.30277V10.2241H7.15804C6.92332 10.2241 6.69821 10.3254 6.53223 10.5055C6.36626 10.6857 6.27302 10.93 6.27302 11.1849C6.27302 11.4397 6.36626 11.684 6.53223 11.8642C6.69821 12.0444 6.92332 12.1456 7.15804 12.1456H8.92808V17.8502C7.21707 17.6159 5.64361 16.712 4.50298 15.308C3.36235 13.9039 2.73296 12.0962 2.73293 10.2241ZM9.81309 19.8312C14.7011 19.8312 18.6633 15.5301 18.6633 10.2241C18.6633 4.91823 14.7011 0.617188 9.81309 0.617188C4.92513 0.617188 0.962891 4.91823 0.962891 10.2241C0.962891 15.5301 4.92513 19.8312 9.81309 19.8312Z" fill="white"/>
</svg>
