<svg width="262" height="99" viewBox="0 0 262 99" fill="none" xmlns="http://www.w3.org/2000/svg">
<path d="M15.4924 0.144775V55.7447H0.397949V0.144775H15.4924ZM70.753 0.144775V55.7447H58.1561L38.0663 26.533H37.7405V55.7447H22.6461V0.144775H35.4601L55.2241 29.2479H55.6585V0.144775H70.753ZM92.9875 0.144775V55.7447H77.893V0.144775H92.9875ZM97.8604 0.144775H114.693L125.552 22.7323H125.987L136.846 0.144775H153.678L133.262 38.2611V55.7447H118.276V38.2611L97.8604 0.144775ZM167.368 55.7447H151.078L169.431 0.144775H190.064L208.416 55.7447H192.127L179.964 15.4565H179.53L167.368 55.7447ZM173.137 36.6321L185.035 32.2522L186.849 38.2611L170.817 44.3167L173.137 36.6321ZM261.878 0.144775V55.7447H249.28L229.191 26.533H228.865V55.7447H213.771V0.144775H226.584L246.349 29.2479H246.783V0.144775H261.878Z" fill="url(#paint0_linear_909_119)"/>
<path d="M86.9105 76.9205C86.8627 76.3169 86.6366 75.847 86.232 75.5086C85.8338 75.1709 85.2278 75.0021 84.4131 75.0021C83.8947 75.0021 83.4687 75.065 83.1374 75.1924C82.8117 75.3127 82.5704 75.4783 82.4135 75.6902C82.2566 75.9012 82.1746 76.1425 82.169 76.414C82.1571 76.637 82.1961 76.8393 82.2869 77.0201C82.3832 77.1953 82.5338 77.3545 82.7392 77.4995C82.9439 77.6388 83.2067 77.7655 83.526 77.8801C83.8461 77.994 84.226 78.0967 84.6664 78.1875L86.1866 78.5132C87.2123 78.7306 88.0907 79.0173 88.8202 79.3733C89.5504 79.7293 90.1477 80.1481 90.612 80.6307C91.077 81.1077 91.4179 81.6445 91.6345 82.2417C91.8582 82.839 91.9729 83.4904 91.9785 84.196C91.9729 85.4152 91.6679 86.4465 91.0643 87.2914C90.4614 88.1356 89.5982 88.7782 88.4761 89.2186C87.3605 89.659 86.0178 89.8796 84.4498 89.8796C82.8388 89.8796 81.4332 89.6407 80.2323 89.1644C79.0378 88.6882 78.1087 87.9548 77.4451 86.9657C76.7875 85.9703 76.4558 84.6969 76.4497 83.1464H81.2277C81.258 83.7134 81.3998 84.1904 81.653 84.5767C81.9062 84.9621 82.2622 85.2551 82.7209 85.4542C83.1852 85.6533 83.7378 85.7529 84.3773 85.7529C84.9141 85.7529 85.3632 85.6868 85.7255 85.5538C86.0871 85.4208 86.3618 85.2368 86.549 85.0019C86.7361 84.7662 86.8325 84.4978 86.8388 84.196C86.8325 83.9125 86.7393 83.6656 86.5577 83.4546C86.3833 83.2372 86.0935 83.0437 85.6889 82.8748C85.2852 82.7004 84.7389 82.5372 84.0516 82.3867L82.2049 81.9885C80.5644 81.6325 79.2701 81.0377 78.323 80.2055C77.3818 79.3669 76.9142 78.2234 76.9203 76.7756C76.9142 75.5994 77.228 74.5705 77.8614 73.6897C78.5009 72.8034 79.3847 72.1121 80.5126 71.6176C81.6474 71.1228 82.9471 70.8755 84.4131 70.8755C85.9095 70.8755 87.2036 71.1259 88.2954 71.6264C89.3872 72.1273 90.2289 72.8328 90.8206 73.7439C91.4179 74.6493 91.7189 75.7077 91.7253 76.9205H86.9105ZM93.3857 75.1829V71.1289H109.493V75.1829H103.919V89.6622H98.9601V75.1829H93.3857ZM122.355 71.1289H127.387V83.0015C127.387 84.4134 127.049 85.635 126.373 86.6671C125.704 87.6928 124.768 88.4859 123.568 89.0466C122.367 89.6016 120.974 89.8796 119.387 89.8796C117.788 89.8796 116.389 89.6016 115.188 89.0466C113.987 88.4859 113.052 87.6928 112.383 86.6671C111.719 85.635 111.387 84.4134 111.387 83.0015V71.1289H116.419V82.5675C116.419 83.1408 116.546 83.6537 116.799 84.106C117.052 84.552 117.402 84.9024 117.849 85.1556C118.301 85.4088 118.814 85.5355 119.387 85.5355C119.966 85.5355 120.479 85.4088 120.926 85.1556C121.372 84.9024 121.722 84.552 121.976 84.106C122.229 83.6537 122.355 83.1408 122.355 82.5675V71.1289ZM136.91 89.6622H129.778V71.1289H136.837C138.744 71.1289 140.39 71.4997 141.778 72.2419C143.171 72.9778 144.246 74.0401 145 75.4274C145.759 76.809 146.139 78.4646 146.139 80.3958C146.139 82.3262 145.763 83.985 145.008 85.373C144.254 86.7539 143.186 87.8162 141.805 88.5584C140.423 89.2942 138.791 89.6622 136.91 89.6622ZM134.81 85.3905H136.728C137.645 85.3905 138.427 85.2432 139.072 84.9478C139.724 84.6515 140.218 84.1418 140.556 83.418C140.9 82.6941 141.072 81.6867 141.072 80.3958C141.072 79.1041 140.897 78.0967 140.547 77.3728C140.203 76.649 139.697 76.1393 139.027 75.8439C138.363 75.5484 137.549 75.4003 136.583 75.4003H134.81V85.3905ZM153.499 71.1289V89.6622H148.468V71.1289H153.499ZM186.156 76.9205C186.108 76.3169 185.882 75.847 185.477 75.5086C185.079 75.1709 184.473 75.0021 183.659 75.0021C183.14 75.0021 182.714 75.065 182.383 75.1924C182.057 75.3127 181.816 75.4783 181.659 75.6902C181.502 75.9012 181.42 76.1425 181.414 76.414C181.403 76.637 181.442 76.8393 181.532 77.0201C181.629 77.1953 181.779 77.3545 181.985 77.4995C182.189 77.6388 182.452 77.7655 182.771 77.8801C183.092 77.994 183.471 78.0967 183.912 78.1875L185.432 78.5132C186.458 78.7306 187.336 79.0173 188.066 79.3733C188.796 79.7293 189.393 80.1481 189.857 80.6307C190.322 81.1077 190.663 81.6445 190.88 82.2417C191.104 82.839 191.218 83.4904 191.224 84.196C191.218 85.4152 190.913 86.4465 190.31 87.2914C189.707 88.1356 188.844 88.7782 187.722 89.2186C186.606 89.659 185.263 89.8796 183.695 89.8796C182.084 89.8796 180.679 89.6407 179.478 89.1644C178.283 88.6882 177.354 87.9548 176.69 86.9657C176.033 85.9703 175.701 84.6969 175.695 83.1464H180.473C180.503 83.7134 180.645 84.1904 180.898 84.5767C181.152 84.9621 181.508 85.2551 181.966 85.4542C182.431 85.6533 182.983 85.7529 183.623 85.7529C184.159 85.7529 184.609 85.6868 184.971 85.5538C185.333 85.4208 185.607 85.2368 185.794 85.0019C185.982 84.7662 186.078 84.4978 186.084 84.196C186.078 83.9125 185.985 83.6656 185.803 83.4546C185.629 83.2372 185.339 83.0437 184.934 82.8748C184.531 82.7004 183.984 82.5372 183.297 82.3867L181.45 81.9885C179.81 81.6325 178.516 81.0377 177.568 80.2055C176.628 79.3669 176.159 78.2234 176.166 76.7756C176.159 75.5994 176.473 74.5705 177.107 73.6897C177.746 72.8034 178.63 72.1121 179.758 71.6176C180.893 71.1228 182.192 70.8755 183.659 70.8755C185.155 70.8755 186.449 71.1259 187.541 71.6264C188.633 72.1273 189.474 72.8328 190.066 73.7439C190.663 74.6493 190.964 75.7077 190.971 76.9205H186.156Z" fill="white"/>
<path d="M163.974 77.1752L167.406 71.2333C168.839 71.6028 170.135 72.327 171.294 73.4058C172.453 74.4846 173.295 75.741 173.821 77.1752H163.974ZM161.54 79.646L158.127 73.6425C159.028 72.7591 160.053 72.0771 161.203 71.5965C162.352 71.1158 163.566 70.8755 164.845 70.8755C165.116 70.8755 165.426 70.8921 165.774 70.9254C166.122 70.9587 166.386 70.993 166.566 71.0284L161.54 79.646ZM155.594 82.7995C155.488 82.3479 155.411 81.9317 155.362 81.5509C155.313 81.17 155.289 80.797 155.289 80.4317C155.289 79.3112 155.479 78.2345 155.859 77.2017C156.238 76.1682 156.793 75.1984 157.523 74.2924L162.394 82.8006L155.594 82.7995ZM162.394 89.6715C160.879 89.2744 159.527 88.5297 158.338 87.4375C157.15 86.346 156.32 85.076 155.849 83.6277H165.832L162.394 89.6715ZM164.845 89.9879C164.579 89.9879 164.293 89.9703 163.985 89.9349C163.677 89.8995 163.426 89.8641 163.231 89.8287L168.232 81.3406L171.583 87.2007C170.695 88.0841 169.67 88.7697 168.507 89.2574C167.344 89.7451 166.123 89.9887 164.845 89.9879ZM172.167 86.5721L167.295 78.0214H174.097C174.189 78.432 174.263 78.8418 174.318 79.251C174.373 79.6601 174.401 80.0537 174.401 80.4317C174.401 81.5756 174.211 82.6594 173.832 83.683C173.453 84.7065 172.898 85.6692 172.167 86.5711" fill="white"/>
<defs>
<linearGradient id="paint0_linear_909_119" x1="144.14" y1="65.699" x2="146.13" y2="-64.5046" gradientUnits="userSpaceOnUse">
<stop stop-color="#FF0000"/>
<stop offset="1" stop-color="#990000"/>
</linearGradient>
</defs>
</svg>
