<svg width="18" height="20" viewBox="0 0 18 20" fill="none" xmlns="http://www.w3.org/2000/svg">
<path d="M14.9879 3.32685C14.1958 2.46455 13.2523 1.78085 12.2124 1.31564C11.1726 0.850431 10.0571 0.613016 8.93124 0.617243C4.21376 0.617243 0.368925 4.76079 0.368925 9.84479C0.368925 11.4743 0.766369 13.0572 1.50942 14.4539L0.299805 19.2399L4.83584 17.955C6.08865 18.6906 7.49699 19.0816 8.93124 19.0816C13.6487 19.0816 17.4936 14.9381 17.4936 9.8541C17.4936 7.38659 16.6036 5.06807 14.9879 3.32685ZM8.93124 17.5173C7.65251 17.5173 6.3997 17.1449 5.30241 16.4465L5.04321 16.2789L2.3475 17.0425L3.06463 14.2118L2.89183 13.9232C2.18139 12.7006 1.80416 11.2873 1.80318 9.84479C1.80318 5.61744 5 2.17224 8.9226 2.17224C10.8234 2.17224 12.6119 2.97301 13.9511 4.42558C14.6142 5.13694 15.1397 5.98306 15.4972 6.9149C15.8546 7.84675 16.0369 8.84578 16.0334 9.8541C16.0507 14.0815 12.8538 17.5173 8.93124 17.5173ZM12.8366 11.7815C12.6206 11.6698 11.5665 11.1111 11.3764 11.0273C11.1777 10.9528 11.0394 10.9156 10.8925 11.1391C10.7457 11.3719 10.3396 11.8933 10.2186 12.0423C10.0976 12.2006 9.96805 12.2192 9.75205 12.0981C9.53604 11.9864 8.84484 11.735 8.03267 10.9528C7.39331 10.3383 6.96994 9.58407 6.84034 9.35129C6.71938 9.1185 6.82306 8.99746 6.93538 8.87641C7.03042 8.77398 7.15138 8.60638 7.25506 8.47602C7.35875 8.34566 7.40195 8.24324 7.47107 8.09425C7.54019 7.93596 7.50563 7.8056 7.45379 7.69387C7.40195 7.58213 6.96994 6.44615 6.79714 5.98058C6.62434 5.53364 6.4429 5.5895 6.3133 5.58019H5.89857C5.75169 5.58019 5.52705 5.63606 5.32833 5.86884C5.13825 6.10163 4.58528 6.66031 4.58528 7.79629C4.58528 8.93228 5.35425 10.031 5.45793 10.18C5.56161 10.3383 6.96994 12.6661 9.11268 13.6624C9.62245 13.9045 10.0199 14.0442 10.3309 14.1466C10.8407 14.3235 11.3073 14.2956 11.6788 14.2397C12.0935 14.1746 12.9489 13.6811 13.1217 13.141C13.3031 12.6009 13.3031 12.1447 13.2426 12.0423C13.1822 11.9398 13.0526 11.8933 12.8366 11.7815Z" fill="white"/>
</svg>
